<?xml version="1.0" encoding="utf-8"?>
<!-- Svg Vector Icons : http://www.onlinewebfonts.com/icon -->
<!DOCTYPE svg PUBLIC "-//W3C//DTD SVG 1.1//EN" "http://www.w3.org/Graphics/SVG/1.1/DTD/svg11.dtd">
<svg version="1.1" xmlns="http://www.w3.org/2000/svg" xmlns:xlink="http://www.w3.org/1999/xlink" x="0px" y="0px" viewBox="0 0 256 256" enable-background="new 0 0 256 256" xml:space="preserve">
<metadata> Svg Vector Icons : http://www.onlinewebfonts.com/icon </metadata>
<g><g><g><path fill="#000000" d="M147.4,24.7l-16.6,87.6h59.9l-82.1,119l16.6-96.3l-59.9-0.5L147.4,24.7z M147.4,10H146c-2.1,0.3-4.3,1.2-6.5,2.8c-0.9,0.6-1.9,1.5-2.8,2.8l-0.9,0.9L53.3,125.7c-3.7,4.9-4.1,10.1-1.4,15.4c2.8,5.4,7.1,8.1,12.9,8.1l42.9,0.5l-13.4,78.8c-0.6,3.4-0.1,6.6,1.4,9.7s4,5.2,7.4,6.5c1.9,0.9,3.7,1.4,5.5,1.4c4.6,0,8.5-2.1,11.5-6.5l82.5-118.4c3.7-4.9,4.1-10,1.4-15.2c-2.8-5.2-7.1-8-12.9-8.3h-42.9l13.4-69.1c0.3-1.2,0.5-2.5,0.5-3.7c0-4-1.4-7.4-4.1-10.1c-2.8-2.8-6.1-4.3-10.1-4.6H147.4z"/></g></g></g>
</svg>